<?xml version="1.0" encoding="UTF-8"?>
<svg width="412px" height="136px" viewBox="0 0 412 136" version="1.1" xmlns="http://www.w3.org/2000/svg" xmlns:xlink="http://www.w3.org/1999/xlink">
    <title>Skyline</title>
    <g id="Page-1" stroke="none" stroke-width="1" fill="none" fill-rule="evenodd">
        <g id="Desktop-HD-Copy-2" transform="translate(-1025.000000, -42.000000)">
            <g id="Skyline" transform="translate(1025.000000, 42.000000)">
                <rect id="Rectangle" fill="#E04733" x="0" y="0" width="412" height="4" rx="2"></rect>
                <rect id="Rectangle-Copy-6" fill="#E04733" x="0" y="12" width="412" height="4" rx="2"></rect>
                <rect id="Rectangle-Copy" fill="#FF6B1C" x="100" y="36" width="312" height="4" rx="2"></rect>
                <rect id="Rectangle-Copy-7" fill="#FF6B1C" x="100" y="24" width="312" height="4" rx="2"></rect>
                <rect id="Rectangle-Copy-2" fill="#FFE600" x="40" y="60" width="372" height="4" rx="2"></rect>
                <rect id="Rectangle-Copy-8" fill="#FFE600" x="40" y="48" width="372" height="4" rx="2"></rect>
                <rect id="Rectangle-Copy-3" fill="#14B045" x="56" y="84" width="356" height="4" rx="2"></rect>
                <rect id="Rectangle-Copy-9" fill="#14B045" x="56" y="72" width="356" height="4" rx="2"></rect>
                <rect id="Rectangle-Copy-4" fill="#0034AC" x="113" y="108" width="299" height="4" rx="2"></rect>
                <rect id="Rectangle-Copy-10" fill="#0034AC" x="113" y="96" width="299" height="4" rx="2"></rect>
                <rect id="Rectangle-Copy-5" fill="#67318E" x="186" y="120" width="226" height="4" rx="2"></rect>
                <rect id="Rectangle-Copy-11" fill="#67318E" x="186" y="132" width="226" height="4" rx="2"></rect>
            </g>
        </g>
    </g>
</svg>