<?xml version="1.0" encoding="UTF-8"?>
<svg width="184px" height="184px" viewBox="0 0 184 184" version="1.1" xmlns="http://www.w3.org/2000/svg" xmlns:xlink="http://www.w3.org/1999/xlink">
    <title>noun_Basketball_556934</title>
    <g id="Page-1" stroke="none" stroke-width="1" fill="none" fill-rule="evenodd">
        <g id="Desktop-HD-Copy" transform="translate(-1291.000000, 9.000000)" fill="#34394C" fill-rule="nonzero">
            <g id="noun_Basketball_556934" transform="translate(1291.000000, -9.000000)">
                <path d="M92,0 C41.1894222,0 0,41.1894222 0,92 C0,142.810578 41.1894222,184 92,184 C142.810578,184 184,142.810578 184,92 C184,41.1894222 142.810578,0 92,0 Z M159.483022,52.2171556 C154.171556,53.8895111 148.655644,54.7849778 142.972089,54.7849778 C132.7192,54.7849778 121.908178,50.6552 113.068,44.8530667 C123.588711,40.3409778 134.755467,37.2538667 146.369956,35.6387556 C151.446311,40.5392889 155.868444,46.1104 159.483022,52.2171556 Z M97.8368889,13.8736 C110.138311,14.7813333 121.646489,18.5349333 131.729689,24.4883556 C121.227378,26.9151111 111.129867,30.4683556 101.561867,35.1235556 C98.164,31.3392889 95.7168,27.4221333 94.7109333,23.7625778 C93.5660444,19.5489778 94.5351111,16.4332444 97.8368889,13.8736 Z M81.5917333,14.3417778 C80.3875556,18.3345778 80.2996444,22.7199111 81.5692444,27.3546667 C82.9308444,32.3390222 85.6704,37.2518222 89.3483556,41.86 C81.7287111,46.552 74.5016,51.9759111 67.7631111,58.1296889 L41.6453333,32.0119111 C52.7630222,22.6647111 66.5037333,16.3555556 81.5917333,14.3417778 Z M32.0078222,41.6473778 L58.1256,67.7651556 C51.9738667,74.5077333 46.552,81.7307556 41.86,89.3524444 C37.2518222,85.6724444 32.3410667,82.9328889 27.3567111,81.5692444 C22.7199111,80.3016889 18.3345778,80.3875556 14.3417778,81.5917333 C16.3535111,66.5057778 22.6606222,52.7650667 32.0078222,41.6473778 Z M24.4883556,131.735822 C18.5349333,121.658756 14.7813333,110.1424 13.8715556,97.8430222 C16.4352889,94.5392 19.5592,93.5660444 23.7646222,94.7232 C27.4241778,95.7188444 31.3413333,98.1721778 35.1235556,101.570044 C30.4663111,111.133956 26.9151111,121.235556 24.4883556,131.735822 Z M52.2171556,159.483022 C46.1083556,155.868444 40.5372444,151.4504 35.6367111,146.374044 C37.2538667,134.755467 40.3409778,123.590756 44.8551111,113.068 C50.6552,121.908178 54.7849778,132.7192 54.7849778,142.972089 C54.7849778,148.655644 53.8895111,154.175644 52.2171556,159.483022 Z M92,170.369689 C82.3829333,170.369689 73.1706667,168.623733 64.6514667,165.438489 C67.1456889,158.248178 68.4152889,150.722578 68.4152889,142.972089 C68.4152889,127.937244 61.6093333,111.551022 51.7673778,99.3313778 C56.2794667,91.5584 61.6318222,84.2229333 67.7815111,77.4190222 L142.358756,151.992178 C128.7264,163.449244 111.160533,170.369689 92,170.369689 Z M151.992178,142.356711 L77.4149333,67.7815111 C84.2208889,61.6318222 91.5543111,56.2815111 99.3313778,51.7673778 C111.546933,61.6093333 127.931111,68.4152889 142.972089,68.4152889 C150.718489,68.4152889 158.246133,67.1436444 165.436444,64.6514667 C168.623733,73.1706667 170.369689,82.3849778 170.369689,92 C170.369689,111.160533 163.4472,128.7264 151.992178,142.356711 Z" id="Shape"></path>
            </g>
        </g>
    </g>
</svg>