<svg xmlns="http://www.w3.org/2000/svg" xmlns:xlink="http://www.w3.org/1999/xlink" height="100px" width="100px" fill="#FFFFFF" version="1.1" x="0px" y="0px" viewBox="0 0 100 100" style="enable-background:new 0 0 100 100;" xml:space="preserve"><g><path d="M22.3,43.5c-0.6,1.5-0.3,3.2,0.9,4.4l24,24c0.8,0.8,1.8,1.2,2.8,1.2s2.1-0.4,2.8-1.2l24-24c1.1-1.1,1.5-2.9,0.9-4.4   C77.1,42,75.7,41,74,41H54V14c0-2.2-1.8-4-4-4s-4,1.8-4,4v27H26C24.3,41,22.9,42,22.3,43.5z M64.4,49L50,63.4L35.6,49H64.4z"/><path d="M18,88h64c2.2,0,4-1.8,4-4s-1.8-4-4-4H18c-2.2,0-4,1.8-4,4S15.8,88,18,88z"/></g></svg>