<?xml version="1.0" encoding="UTF-8"?>
<svg width="1024px" height="512px" viewBox="0 0 1024 512" version="1.1" xmlns="http://www.w3.org/2000/svg" xmlns:xlink="http://www.w3.org/1999/xlink">
    <title>perfectszn-postcard</title>
    <defs>
        <linearGradient x1="50%" y1="0%" x2="50%" y2="100%" id="linearGradient-1">
            <stop stop-color="#0C0C0C" offset="0%"></stop>
            <stop stop-color="#292929" offset="100%"></stop>
        </linearGradient>
        <linearGradient x1="11.8076026%" y1="35.9764199%" x2="93.8839146%" y2="64.9249423%" id="linearGradient-2">
            <stop stop-color="#E04733" offset="0%"></stop>
            <stop stop-color="#FF6B1C" offset="100%"></stop>
        </linearGradient>
    </defs>
    <g id="perfectszn-postcard" stroke="none" stroke-width="1" fill="none" fill-rule="evenodd">
        <rect id="bg" fill="url(#linearGradient-1)" x="0" y="-6" width="1024" height="518"></rect>
        <g id="Callout" transform="translate(278.000000, 357.000000)">
            <text id="Create-yours" font-family="Arvo-Bold, Arvo" font-size="20" font-weight="bold" fill="#FFFFFF">
                <tspan x="32" y="60">CREATE YOURS</tspan>
            </text>
            <rect id="Rectangle" stroke="#FFFFFF" stroke-width="3" x="1.5" y="1.5" width="547" height="100" rx="4"></rect>
            <text id="perfectszn.app" font-family="Karla-Regular_Bold, Karla" font-size="20" font-weight="bold" fill="#FFFFFF" text-decoration="underline">
                <tspan x="377" y="60">perfectszn.app</tspan>
            </text>
        </g>
        <g id="TopicCard" transform="translate(88.000000, 238.000000)">
            <rect id="Rectangle-Copy-12" fill="url(#linearGradient-2)" x="7" y="0" width="167" height="103" rx="4"></rect>
            <rect id="Rectangle" fill="#FFFFFF" x="0" y="0" width="170" height="100" rx="4"></rect>
            <text id="Jokic-MVP" font-family="Karla-Regular_Bold, Karla" font-size="20" font-weight="bold" line-spacing="32" fill="#000516">
                <tspan x="37.3078638" y="38">Jokic MVP</tspan>
            </text>
        </g>
        <g id="TopicCard" transform="translate(278.000000, 238.000000)">
            <rect id="Rectangle-Copy-12" fill="url(#linearGradient-2)" x="7" y="0" width="167" height="103" rx="4"></rect>
            <rect id="Rectangle" fill="#FFFFFF" x="0" y="0" width="170" height="100" rx="4"></rect>
            <text id="Murray-makes-ASG" font-family="Karla-Regular_Bold, Karla" font-size="20" font-weight="bold" line-spacing="32" fill="#000516">
                <tspan x="16.8909253" y="40">Murray makes </tspan>
                <tspan x="65.6017358" y="72">ASG</tspan>
            </text>
        </g>
        <g id="TopicCard" transform="translate(468.000000, 238.000000)">
            <rect id="Rectangle-Copy-12" fill="url(#linearGradient-2)" x="7" y="0" width="167" height="103" rx="4"></rect>
            <rect id="Rectangle" fill="#FFFFFF" x="0" y="0" width="170" height="100" rx="4"></rect>
            <text id="MPJ-40%-from-3" font-family="Karla-Regular_Bold, Karla" font-size="20" font-weight="bold" line-spacing="32" fill="#000516">
                <tspan x="18.2799585" y="40">MPJ 40% from </tspan>
                <tspan x="78.7803735" y="72">3</tspan>
            </text>
        </g>
        <g id="TopicCard" transform="translate(658.000000, 238.000000)">
            <rect id="Rectangle-Copy-12" fill="url(#linearGradient-2)" x="7" y="0" width="167" height="103" rx="4"></rect>
            <rect id="Rectangle" fill="#FFFFFF" x="0" y="0" width="170" height="100" rx="4"></rect>
            <text id="MPJ-50-point-game" font-family="Karla-Regular_Bold, Karla" font-size="20" font-weight="bold" line-spacing="32" fill="#000516">
                <tspan x="23.5889746" y="40">MPJ 50 point </tspan>
                <tspan x="58.5405078" y="72">game</tspan>
            </text>
        </g>
        <g id="TopicCard" transform="translate(88.000000, 357.000000)">
            <rect id="Rectangle-Copy-12" fill="url(#linearGradient-2)" x="7" y="0" width="167" height="103" rx="4"></rect>
            <rect id="Rectangle" fill="#FFFFFF" x="0" y="0" width="170" height="100" rx="4"></rect>
            <text id="Murray-60-point-game" font-family="Karla-Regular_Bold, Karla" font-size="20" font-weight="bold" line-spacing="32" fill="#000516">
                <tspan x="36.3256763" y="40">Murray 60 </tspan>
                <tspan x="30.7927344" y="72">point game</tspan>
            </text>
        </g>
        <g id="Header" transform="translate(88.000000, 45.000000)">
            <g id="Skyline" transform="translate(524.000000, 0.000000)">
                <rect id="Rectangle" fill="#E04733" x="0" y="0" width="412" height="4" rx="2"></rect>
                <rect id="Rectangle-Copy-6" fill="#E04733" x="0" y="12" width="412" height="4" rx="2"></rect>
                <rect id="Rectangle-Copy" fill="#FF6B1C" x="100" y="36" width="312" height="4" rx="2"></rect>
                <rect id="Rectangle-Copy-7" fill="#FF6B1C" x="100" y="24" width="312" height="4" rx="2"></rect>
                <rect id="Rectangle-Copy-2" fill="#FFE600" x="40" y="60" width="372" height="4" rx="2"></rect>
                <rect id="Rectangle-Copy-8" fill="#FFE600" x="40" y="48" width="372" height="4" rx="2"></rect>
                <rect id="Rectangle-Copy-3" fill="#14B045" x="56" y="84" width="356" height="4" rx="2"></rect>
                <rect id="Rectangle-Copy-9" fill="#14B045" x="56" y="72" width="356" height="4" rx="2"></rect>
                <rect id="Rectangle-Copy-4" fill="#0034AC" x="113" y="108" width="299" height="4" rx="2"></rect>
                <rect id="Rectangle-Copy-10" fill="#0034AC" x="113" y="96" width="299" height="4" rx="2"></rect>
                <rect id="Rectangle-Copy-5" fill="#67318E" x="186" y="120" width="226" height="4" rx="2"></rect>
                <rect id="Rectangle-Copy-11" fill="#67318E" x="186" y="132" width="226" height="4" rx="2"></rect>
            </g>
            <text id="Denver-Nuggets" font-family="Karla-Regular_Bold, Karla" font-size="24" font-weight="bold" fill="#FFFFFF">
                <tspan x="0" y="130">Denver Nuggets</tspan>
            </text>
            <text id="Perfect-SZN" font-family="Arvo-Bold, Arvo" font-size="44" font-weight="bold" fill="#FFFFFF">
                <tspan x="0" y="89">Perfect SZN</tspan>
            </text>
        </g>
    </g>
</svg>